<svg width="512" height="512" viewBox="0 0 512 512" fill="none" xmlns="http://www.w3.org/2000/svg">
<path d="M272.5 177.5L221 146.5H219.5L207.5 151.5L263.5 268.5L214.5 237.5L77 228L32.5 102.5L37.5 113.5L75.5 159L97 168L102 156.5L70 136L53.5 115L29 88.5V101.5L75.5 230.5L36 176.5H32L43 214.5L72 249.5L100.5 269L105.5 267.5L81.5 232.5L88.5 230.5L144.5 240.5L212 242L265 276L268.5 322L263 338L200.5 359L206 377.5L215 382L220 368L267 364L291.5 390.5L305 399L326.5 405.5H359.5L389.5 395.5L416.5 377.5L419 365L397 382L357.5 395.5L324.5 392.5L294.5 374.5L273.5 352.5L308.5 354L314.5 345L293.5 328.5L283 286.5L214.5 153L245 176L310 212L358.5 217L393.5 215.5L440.5 200.5L455 180.5L435.5 189.5L387 203H344.5L304.5 194L272.5 177.5Z" fill="#53808E" stroke="#53808E"/>
<path d="M229 363L225 255.5L265 274.5V363L298 401L272 391L229 363Z" fill="#E0D9BD" stroke="#E0D9BD"/>
<path d="M159.5 331L81 232H199L241.428 253.568C246.653 254.567 253.448 258.473 259 262.5L241.428 253.568C232.381 251.838 228.04 258.826 243 289C266.6 336.6 244 363 227 360L190.5 350L159.5 331Z" fill="#FEFBEE"/>
<path d="M81 232L159.5 331L190.5 350L227 360C244 363 266.6 336.6 243 289C219.4 241.4 243.833 251.5 259 262.5L199 232H81Z" stroke="#FEFBEE"/>
<path d="M171.5 277C149.5 286.2 131.333 276.167 125 270C129.4 280 141.167 284.5 146.5 285.5L152.5 299L150 308.5L166 325.5L177 326L189.5 338.5L205 339L216 346.5H218L217.5 343.5L209 337.5L214 330.5H230.5L237.5 337.5L234 342.5L236 344.5L242.5 337.5L234 327L241 316L232.5 301C236.5 294.6 243.5 287.333 246.5 284.5L247 289.5L258 286.5L244.5 279L228 299H212L203 285C209.833 277.333 223.2 261.8 222 261C220.8 260.2 206.167 275 199 282.5H181.5L171.5 298.5L156.5 297L151.5 286C158 284.833 171.5 281.4 171.5 277Z" fill="#E0D9BD" stroke="#E0D9BD"/>
<path d="M175.5 300L184 286.5L198.5 287L208.5 301L201 314L185 313L175.5 300Z" fill="#FEFBEE"/>
<path d="M205 315L212 303.5H228.5L236.5 316.5L230 326.5H214L205 315Z" fill="#FEFBEE"/>
<path d="M190 334L180.5 323.5L185 316.5L201 317.5L210 329L205 335L190 334Z" fill="#FEFBEE"/>
<path d="M154.5 306.5L156.5 301L172 302.5L181 315.5L177 322.5C171.4 322.5 168 321.5 167 321C163.4 319 157.167 310.5 154.5 306.5Z" fill="#FEFBEE"/>
<path d="M276 275L271.5 267.5L350.5 264L401.5 237L467 185L482 179.5L455.5 218L394.5 266L332 281.5L276 275Z" fill="#4BE6E6" stroke="#4BE6E6"/>
<path d="M235 243L201.5 243.5L205.5 246C253.1 266 260 312.667 257.5 333.5C253 370.5 274 379.5 294.5 398L326 407.5L342.5 404C296.5 403 270 368 270 355H271.5L274 352L300.5 354L312 349.5C302.4 349.1 285.833 332.5 278.5 323.5L272.5 326C271.7 319.6 274.5 305 275.5 282.5L289.5 295V321L308 312L346.5 295L399 264.5L437 239.5L462 212L478 186.5C403.2 286.9 313.5 284.333 278 270.5L266.5 266L246.5 256L235 243Z" fill="#001A33" stroke="#001A33"/>
<path d="M219 376C213 374.4 207.833 363.333 206 358L227 363.5L219 376Z" fill="#001A33" stroke="#001A33"/>
<path d="M130 254.5L107.5 245.5C103.198 239.046 97 233.5 96 235C93.6105 234.172 91.054 233.992 88 233.5C87 233 83.9619 232.548 81 232L94 175L120 146L131.5 118.5L153 96.5L148 116.5V135L188.5 139L197 126L229.5 103L222 126L220.5 144.5L213.5 151C220.3 151.8 244.333 168.667 255.5 177C332 237 417.667 213.833 450.5 185L484.5 162L487 167C397 297.4 283.167 280 237.5 255C233.1 243.8 214.667 245 206 247C203.6 245.4 194.667 245 190.5 245C184.5 245.833 172.6 248.3 173 251.5C173.4 254.7 144.5 254.833 130 254.5Z" fill="#004063"/>
<path d="M51.5 200.5L77 228.5L97 164C70.2 157.2 45.8333 122.5 37 106C32.6 99.2 31 99.5 27 102V151.5L51.5 200.5Z" fill="#004063"/>
<path d="M175.5 172C184.833 165.333 207.4 158.6 223 185C219.5 158.5 188 147.5 175.5 172Z" fill="#67A3B4"/>
<path d="M117.5 218.5C118.606 218.582 118.863 218.708 119 219.5C119.314 221.319 111.916 230 110 230V230C108.685 230 108.41 228.29 108.963 227.097C110.471 223.844 115.082 218.322 117.5 218.5Z" fill="#35FFFF"/>
<path d="M188 141.5L182 151C182.333 151.833 184.2 152.4 189 148C191.82 145.415 198.171 135.457 206 126C214.826 115.338 225.261 105.35 229.5 108V102L211 114.5L201 122L194.5 133L188 141.5Z" fill="#35FFFF"/>
<path d="M135 110.5C135.8 107.3 145.667 100.833 150.5 98C152.667 100.5 154.8 106.9 148 106.5C141.2 106.1 131.667 127.833 127.5 139.5C125.667 141.167 121.8 144.2 121 143C120 141.5 134 114.5 135 110.5Z" fill="#35FFFF"/>
<path d="M161 134H191.5L186.5 141.5C186.5 141.5 169.328 140.475 158.5 142C147.425 143.56 131 149.5 131 149.5C131.4 160.3 128.667 165.167 127 166.5C118.5 152.5 111 161.5 108 164.5C102.677 169.823 99 180.667 97 187C95.5 192.5 93.5 202.5 91.5 205.5C81.1 219.1 85.1667 228.833 88 233.5C87.6 233.1 83.8333 233.167 82 233.5L78 222L85.5 202.5L91.5 180L105 156.5L118.5 148L128.5 140L161 134Z" fill="#35FFFF"/>
<path d="M231.589 239.232C244.429 228.973 244.976 216.786 244.999 199.797C245 198.924 245.949 198.55 246.384 199.307C251.559 208.303 250.573 235.977 232.278 240.851C231.282 241.116 230.784 239.874 231.589 239.232Z" fill="#35FFFF"/>
<path d="M239.719 248.281C252.173 240.596 255.833 225.081 256.031 214C256.049 213.039 257.079 212.735 257.379 213.649C260.474 223.054 254.146 244.43 240.193 249.776C239.129 250.184 238.749 248.88 239.719 248.281Z" fill="#35FFFF"/>
<path d="M63.6811 166.474C55.5848 159.216 50.5899 148.395 49.0169 143.552C49.0134 143.542 49.027 143.535 49.0339 143.544C54.2143 150.227 65.1052 163.903 67.5 165.5C69.9 167.1 69.5 169.167 69 170L66.8116 174.742C66.3175 175.812 66.4958 177.078 67.2841 177.955C75.1398 186.691 82.2206 191.609 86.3955 193.817C87.7825 194.55 88.5341 196.211 87.9708 197.676C87.2656 199.509 84.9361 200.056 83.4938 198.722C76.5017 192.256 66.073 182.573 64 180.5C61.6 178.1 62 175.5 62.5 174.5L64.5049 170.156C65.088 168.893 64.7172 167.403 63.6811 166.474Z" fill="#35FFFF"/>
<path d="M79.2557 176.515L87.7127 182.281C88.6584 182.926 89.9556 182.589 90.4674 181.565C90.7929 180.914 90.7197 180.132 90.2293 179.595C88.6563 177.87 85.6632 175.165 82 173.5C78.3099 171.823 77.8786 173.545 78.2288 175.127C78.3576 175.71 78.7631 176.179 79.2557 176.515Z" fill="#35FFFF"/>
<path d="M289.21 218.819L269.5 206.5C265.039 202.783 269.733 200.793 272.024 202.938C272.378 203.269 272.721 203.621 273.145 203.854C280.336 207.803 293.724 215.336 294.5 216.5C295.189 217.534 294.443 223.839 293.797 228.123C293.624 229.271 294.104 230.429 295.09 231.043C310.522 240.657 337.302 243.33 350.258 243.492C351.053 243.502 351.799 243.146 352.452 242.691C357.577 239.119 359.827 250.295 352.473 247.434C351.835 247.186 351.149 247.086 350.47 247.174C337.059 248.905 285.095 238.269 288.5 230C291.063 223.774 290.47 220.427 289.712 219.266C289.588 219.076 289.403 218.939 289.21 218.819Z" fill="#35FFFF"/>
<path d="M393.078 226.989C360.433 239.344 324.104 234.023 309.077 227.952C308.369 227.666 307.731 227.121 307.675 226.36C307.575 225.005 309.172 225.387 310.285 225.897C310.429 225.963 310.579 226.025 310.731 226.072C344.592 236.656 372.751 230.845 391.955 224.521C395.269 223.43 396.341 225.754 393.078 226.989Z" fill="#35FFFF"/>
<path d="M119.5 282.5C132.5 296 150.5 321 150.5 321C150.5 321 165.723 340.374 197.815 354M119.5 282.5C105.5 271.5 90.5 263.5 90.5 263.5C90.5 263.5 75.0001 254.5 64 241C61.5001 238.5 37 214 29 166.5C28.2447 162.016 27.7519 153.621 27.5 148.5M119.5 282.5L81.5 234.5M275.5 357.5C276.972 359.953 345.827 445.191 432.482 352.072C433.275 351.219 434.654 352.092 434.091 353.112C387.287 437.924 284.5 397 284.5 397C284.5 397 269.861 389.68 243.38 369.847C239.18 366.702 234.267 364.643 229.122 363.612C229.081 363.604 229.041 363.595 229 363.587M275.5 357.5C270 350.5 279 351.5 279 351.5C279 351.5 294.41 355.248 311.545 352.482C314.092 352.071 315.381 349.281 313.819 347.229C308.207 339.854 299.277 334.971 292.5 326.5M275.5 357.5C275.5 357.5 265.138 346.952 268.5 341.5C274.518 331.74 278.403 320.798 280.428 312.5M292.5 326.5C292.5 326.5 288 321 289.5 308C290.452 299.752 297.476 294.66 301.134 292.513C302.339 291.805 303.726 291.506 305.123 291.48C334.311 290.933 366.91 279.318 383.762 271.5M292.5 326.5C291.794 304.951 364.216 298.377 426.183 247M292.5 326.5C292.5 326.5 292.971 327 287.5 323C283 318 280.428 312.5 280.428 312.5M150 135C150 135 172 131.5 190.5 134.5C221 96 232.988 99.6857 231 103.5C215 135.5 220.5 139 221 145C225.5 147 228.5 146.424 250.5 163.5C356.46 245.744 459.518 179.97 485.661 160.496C487.338 159.247 489.723 161.119 488.895 163.039C472.87 200.179 450.32 226.988 426.183 247M150 135C150 135 138.5 137 153.5 96.5C154.146 94.7553 132 97 119 146M150 135C150 135 141.053 136.852 135 139C128.947 141.148 119 146 119 146M119 146C110 152.5 110.5 152 104 157M104 157C96.5 155 71.5 144 55 118C33.1364 83.5484 29 87.5 29 87.5C26.4485 87.5 26 118 27.5 148.5M104 157C98.1622 166.243 91.8511 170.28 87.3693 197.662C87.1222 199.172 86.381 200.563 85.3615 201.704C74.5436 213.809 78.1585 228.453 81.5 234.5M197.815 354C197.815 354 200.864 376.975 215.513 383.587C216.04 383.824 216.649 383.524 216.829 382.976C222.275 366.386 229 363.587 229 363.587M197.815 354C206.858 357.84 217.241 361.223 229 363.587M426.183 247C426.183 247 409.247 259.678 383.762 271.5M383.762 271.5C383.762 271.5 324.5 293.5 272 279.5C275.791 281.667 282 284.5 282 284.5C282 284.5 284.629 295.29 280.428 312.5M81.5 234.5C81.5 234.5 65.5 221.82 49.5 197.5C35.0916 175.599 27.5 148.5 27.5 148.5" stroke="#041225" stroke-width="7"/>
<path d="M205.5 152C220.3 151.6 213.5 140 218 126L222 143L244 162L223.5 150C218.5 152.5 210.167 152.5 205.5 152Z" fill="#041225"/>
<path d="M278.5 286.5C268.963 283.094 253.667 271.833 247.5 265.5C252.7 269.5 273 276.5 282.5 279.5L293.5 283L329 289L304 292.5L290.5 302.5L292.5 317L293.5 332C293.167 331.5 292.1 330.4 290.5 330C288.9 329.6 283.833 323.833 281.5 321L281 323H273.5C279.333 311.5 278.5 297 278.5 286.5Z" fill="#041225"/>
<path d="M179.5 152.5C178.7 150.1 184.167 140.5 187 136H193.5C189.167 142.5 180.3 154.9 179.5 152.5Z" fill="#041225"/>
<path d="M122.5 149.5L134 143L111.5 150.5L110.5 156.5C120.5 148.1 126.167 161.333 127.5 169C130.3 153.4 125.5 151.5 122.5 149.5Z" fill="#041225"/>
<path d="M175.5 171C180 153 217.9 146.5 223.5 184.5C209.5 152.1 185.667 162 175.5 171Z" fill="#041225"/>
<path d="M250.581 253.932C260.987 243.595 262.889 232.28 263.765 225.017C263.8 224.725 264.199 224.728 264.226 225.021C266.036 244.278 256.687 252.778 250.786 254.33C250.548 254.393 250.407 254.105 250.581 253.932Z" fill="#041225"/>
<path d="M122.5 255.5C112.5 255.5 98.5 233 96 235C99.5 227.5 104 233 104.5 234C118.1 261.2 157.5 253.667 175.5 246.5C179.826 245.32 178.275 244.45 178.389 242.672C178.462 241.529 179.653 240.894 180.794 240.803C190.938 239.993 193.842 245.161 194 248C191.6 244.8 187.333 246 185.5 247C145 282 126.833 265.833 122.5 255.5Z" fill="#041225"/>
<path d="M121.5 200.5C118.399 216.004 110.719 224.701 103 221C95.2812 217.299 90.5 205 97 186.5C103.837 172.243 110.5 172.842 115 175C122.719 178.701 122.5 195.5 121.5 200.5Z" fill="#041225"/>
<path d="M210.5 218.5C205.5 228.5 195.5 230.5 184 230.5C174 230.5 166.5 223 166.5 210.5C166.5 182.5 189.5 178.529 195.5 179C218.5 180.804 214 213 210.5 218.5Z" fill="#041225"/>
<path d="M130 258C139.333 258.667 159.8 259 167 255C167 255 146 275 130 258Z" fill="#67A3B4" stroke="#67A3B4"/>
<path d="M107 180C111.255 176.454 114.141 179.352 115.547 182.03C115.816 182.543 115.524 183.156 114.984 183.367C100.934 188.839 102.528 205.623 105.84 215.835C106.147 216.782 105.097 217.566 104.376 216.879C92.1949 205.284 101.363 184.698 107 180Z" fill="white" stroke="white"/>
<path d="M187.004 226.182C208.285 229.538 217.216 198.824 199 187.5C191.369 182.757 183.417 184.858 178.5 190C174.582 194.097 172.717 200.174 171.256 205.028C171.168 205.318 171.653 205.462 171.807 205.201C194.494 166.909 213.999 216.47 186.981 225.689C186.734 225.773 186.746 226.141 187.004 226.182Z" fill="white" stroke="white"/>
<path d="M117 192.5C117 195.538 115.433 198 113.5 198C111.567 198 110 195.538 110 192.5C110 189.462 112.567 187.5 114.5 187.5C116.433 187.5 117 189.462 117 192.5Z" fill="white"/>
<ellipse cx="185" cy="201.5" rx="5" ry="4.5" fill="white"/>
</svg>
